<svg width="1356" height="636" viewBox="0 0 1356 636" fill="none" xmlns="http://www.w3.org/2000/svg">
<path d="M76.247 336.141C64.2475 336.141 53.1647 333.976 42.9985 329.645C32.9989 325.314 24.2493 319.401 16.7496 311.905L29.2491 297.413C35.4155 303.577 42.5818 308.574 50.7481 312.405C58.9144 316.069 67.7474 317.902 77.2469 317.902C88.5798 317.902 97.3294 315.486 103.496 310.656C109.829 305.825 112.995 299.579 112.995 291.917C112.995 287.586 112.245 283.921 110.745 280.923C109.246 277.925 107.162 275.343 104.496 273.177C101.829 271.012 98.6627 269.096 94.9961 267.431C91.4963 265.765 87.6631 264.016 83.4967 262.184L59.9977 251.939C55.8312 250.274 51.6647 248.275 47.4983 245.943C43.3318 243.611 39.4986 240.779 35.9988 237.448C32.6656 234.116 29.9157 230.202 27.7491 225.704C25.5826 221.04 24.4993 215.71 24.4993 209.714C24.4993 203.55 25.8326 197.804 28.4991 192.473C31.1657 187.143 34.8322 182.562 39.4986 178.731C44.3317 174.734 49.9981 171.652 56.4979 169.487C63.1642 167.321 70.4139 166.238 78.2469 166.238C88.5798 166.238 98.0793 168.154 106.746 171.985C115.412 175.65 122.745 180.48 128.745 186.477L117.745 199.969C112.412 195.139 106.496 191.391 99.9959 188.726C93.4962 185.894 85.9965 184.478 77.4969 184.478C67.9973 184.478 60.331 186.643 54.4979 190.974C48.6649 195.139 45.7483 200.969 45.7483 208.464C45.7483 212.462 46.5816 215.877 48.2482 218.708C50.0815 221.374 52.3314 223.789 54.9979 225.954C57.8311 227.953 60.9977 229.702 64.4975 231.201C67.9973 232.7 71.4972 234.2 74.997 235.699L97.996 245.693C102.996 247.692 107.662 250.024 111.995 252.689C116.495 255.188 120.328 258.186 123.495 261.684C126.828 265.015 129.411 269.013 131.245 273.677C133.244 278.174 134.244 283.421 134.244 289.418C134.244 295.914 132.911 301.994 130.245 307.658C127.578 313.321 123.745 318.318 118.745 322.649C113.745 326.813 107.662 330.145 100.496 332.643C93.3296 334.975 85.2466 336.141 76.247 336.141ZM224.893 336.141C216.893 336.141 209.227 334.725 201.894 331.894C194.727 329.062 188.394 324.981 182.894 319.651C177.395 314.154 172.978 307.491 169.645 299.662C166.479 291.667 164.895 282.672 164.895 272.678C164.895 262.517 166.479 253.522 169.645 245.693C172.978 237.698 177.395 230.951 182.894 225.455C188.394 219.958 194.727 215.793 201.894 212.962C209.227 210.13 216.893 208.714 224.893 208.714C232.892 208.714 240.475 210.13 247.642 212.962C254.975 215.793 261.391 219.958 266.891 225.455C272.39 230.951 276.724 237.698 279.89 245.693C283.223 253.522 284.89 262.517 284.89 272.678C284.89 282.672 283.223 291.667 279.89 299.662C276.724 307.491 272.39 314.154 266.891 319.651C261.391 324.981 254.975 329.062 247.642 331.894C240.475 334.725 232.892 336.141 224.893 336.141ZM224.893 319.151C230.726 319.151 235.975 318.068 240.642 315.903C245.475 313.571 249.558 310.406 252.891 306.408C256.391 302.244 259.058 297.33 260.891 291.667C262.724 286.003 263.641 279.674 263.641 272.678C263.641 265.682 262.724 259.352 260.891 253.688C259.058 247.858 256.391 242.861 252.891 238.697C249.558 234.533 245.475 231.368 240.642 229.202C235.975 226.87 230.726 225.704 224.893 225.704C219.06 225.704 213.726 226.87 208.893 229.202C204.227 231.368 200.144 234.533 196.644 238.697C193.311 242.861 190.727 247.858 188.894 253.688C187.061 259.352 186.144 265.682 186.144 272.678C186.144 279.674 187.061 286.003 188.894 291.667C190.727 297.33 193.311 302.244 196.644 306.408C200.144 310.406 204.227 313.571 208.893 315.903C213.726 318.068 219.06 319.151 224.893 319.151ZM401.537 336.141C388.538 336.141 378.621 332.477 371.788 325.148C364.955 317.818 361.539 306.908 361.539 292.416V171.985H318.291V155.245H382.038V293.915C382.038 302.91 384.204 309.407 388.538 313.404C392.871 317.235 398.704 319.151 406.037 319.151C413.203 319.151 420.786 317.319 428.786 313.654L434.036 328.895C428.369 331.227 423.203 332.976 418.536 334.142C413.87 335.475 408.203 336.141 401.537 336.141ZM511.184 336.141C496.518 336.141 485.769 332.06 478.936 323.898C472.269 315.57 468.936 303.327 468.936 287.169V211.712H489.685V284.421C489.685 295.914 491.769 304.493 495.935 310.156C500.268 315.653 507.518 318.401 517.684 318.401C524.684 318.401 531.017 316.652 536.683 313.154C542.35 309.49 548.599 303.743 555.432 295.914V211.712H575.932V333.143H559.182L557.432 311.905H556.432C550.266 319.068 543.516 324.898 536.183 329.395C529.017 333.893 520.684 336.141 511.184 336.141ZM698.078 336.141C689.245 336.141 681.829 334.975 675.829 332.643C669.83 330.145 664.996 326.73 661.33 322.399C657.663 317.902 654.997 312.571 653.33 306.408C651.83 300.245 651.08 293.416 651.08 285.92V228.453H616.832V212.962L651.83 211.712L654.58 172.735H671.579V211.712H731.327V228.453H671.579V286.17C671.579 291.667 672.08 296.497 673.079 300.662C674.079 304.659 675.746 308.074 678.079 310.906C680.412 313.737 683.579 315.903 687.579 317.402C691.579 318.735 696.495 319.401 702.328 319.401C708.161 319.401 713.411 318.901 718.077 317.902C722.744 316.902 727.244 315.57 731.577 313.904L736.077 328.895C730.577 330.894 724.744 332.56 718.577 333.893C712.578 335.392 705.745 336.141 698.078 336.141ZM828.479 333.143V228.453H771.981V211.712H848.978V333.143H828.479ZM836.478 186.227C831.812 186.227 827.895 184.811 824.729 181.979C821.562 178.981 819.979 175.067 819.979 170.236C819.979 165.406 821.562 161.574 824.729 158.743C827.895 155.744 831.812 154.245 836.478 154.245C841.145 154.245 845.061 155.744 848.228 158.743C851.394 161.574 852.977 165.406 852.977 170.236C852.977 175.067 851.394 178.981 848.228 181.979C845.061 184.811 841.145 186.227 836.478 186.227ZM974.374 336.141C966.374 336.141 958.708 334.725 951.375 331.894C944.208 329.062 937.875 324.981 932.375 319.651C926.876 314.154 922.459 307.491 919.126 299.662C915.96 291.667 914.376 282.672 914.376 272.678C914.376 262.517 915.96 253.522 919.126 245.693C922.459 237.698 926.876 230.951 932.375 225.455C937.875 219.958 944.208 215.793 951.375 212.962C958.708 210.13 966.374 208.714 974.374 208.714C982.373 208.714 989.956 210.13 997.123 212.962C1004.46 215.793 1010.87 219.958 1016.37 225.455C1021.87 230.951 1026.2 237.698 1029.37 245.693C1032.7 253.522 1034.37 262.517 1034.37 272.678C1034.37 282.672 1032.7 291.667 1029.37 299.662C1026.2 307.491 1021.87 314.154 1016.37 319.651C1010.87 324.981 1004.46 329.062 997.123 331.894C989.956 334.725 982.373 336.141 974.374 336.141ZM974.374 319.151C980.207 319.151 985.456 318.068 990.123 315.903C994.956 313.571 999.039 310.406 1002.37 306.408C1005.87 302.244 1008.54 297.33 1010.37 291.667C1012.21 286.003 1013.12 279.674 1013.12 272.678C1013.12 265.682 1012.21 259.352 1010.37 253.688C1008.54 247.858 1005.87 242.861 1002.37 238.697C999.039 234.533 994.956 231.368 990.123 229.202C985.456 226.87 980.207 225.704 974.374 225.704C968.541 225.704 963.207 226.87 958.374 229.202C953.708 231.368 949.625 234.533 946.125 238.697C942.792 242.861 940.208 247.858 938.375 253.688C936.542 259.352 935.625 265.682 935.625 272.678C935.625 279.674 936.542 286.003 938.375 291.667C940.208 297.33 942.792 302.244 946.125 306.408C949.625 310.406 953.708 313.571 958.374 315.903C963.207 318.068 968.541 319.151 974.374 319.151ZM1072.52 333.143V211.712H1089.52L1091.27 232.451H1092.27C1098.6 225.621 1105.44 219.958 1112.77 215.46C1120.1 210.963 1128.52 208.714 1138.02 208.714C1152.52 208.714 1163.1 212.878 1169.77 221.207C1176.6 229.369 1180.02 241.529 1180.02 257.686V333.143H1159.52V260.435C1159.52 248.941 1157.35 240.446 1153.02 234.949C1148.68 229.286 1141.52 226.454 1131.52 226.454C1127.85 226.454 1124.44 226.954 1121.27 227.953C1118.27 228.786 1115.27 230.119 1112.27 231.951C1109.27 233.783 1106.19 236.115 1103.02 238.947C1099.85 241.612 1096.52 244.777 1093.02 248.441V333.143H1072.52ZM1276.66 336.141C1264.66 336.141 1253.58 334.309 1243.41 330.644C1233.25 326.813 1224.42 322.316 1216.92 317.152L1226.42 303.66C1233.42 308.657 1241.08 312.655 1249.41 315.653C1257.91 318.651 1267.83 320.15 1279.16 320.15C1289.5 320.15 1297.16 318.318 1302.16 314.654C1307.33 310.822 1309.91 306.325 1309.91 301.161C1309.91 298.829 1309.49 296.664 1308.66 294.665C1307.83 292.666 1306 290.751 1303.16 288.918C1300.5 287.086 1296.66 285.337 1291.66 283.671C1286.66 282.006 1280.08 280.34 1271.91 278.674C1256.08 275.343 1244.16 270.929 1236.16 265.432C1228.33 259.768 1224.42 252.356 1224.42 243.194C1224.42 238.364 1225.5 233.866 1227.67 229.702C1229.83 225.371 1233 221.707 1237.16 218.708C1241.5 215.544 1246.75 213.128 1252.91 211.463C1259.25 209.63 1266.58 208.714 1274.91 208.714C1284.25 208.714 1293.25 210.297 1301.91 213.461C1310.58 216.46 1317.91 220.041 1323.91 224.205L1313.91 237.448C1308.24 233.617 1302 230.535 1295.16 228.203C1288.33 225.871 1281 224.705 1273.16 224.705C1262.83 224.705 1255.58 226.454 1251.41 229.952C1247.25 233.45 1245.16 237.531 1245.16 242.195C1245.16 247.525 1247.91 251.606 1253.41 254.438C1258.91 257.103 1267.91 259.768 1280.41 262.433C1290.58 264.599 1298.91 266.931 1305.41 269.429C1311.91 271.761 1316.99 274.427 1320.66 277.425C1324.49 280.423 1327.08 283.755 1328.41 287.419C1329.91 291.084 1330.66 295.248 1330.66 299.912C1330.66 304.909 1329.49 309.573 1327.16 313.904C1324.83 318.235 1321.33 322.066 1316.66 325.397C1312.16 328.729 1306.5 331.311 1299.66 333.143C1293 335.142 1285.33 336.141 1276.66 336.141Z" fill="#FF7619"/>
<path d="M22.7263 7.57143L1333.27 7.57141" stroke="#FF7619" stroke-width="11"/>
<path d="M1045.41 499.714H1333.27" stroke="#FF7619" stroke-width="11"/>
<path d="M22.7263 499.714H310.592" stroke="#FF7619" stroke-width="11"/>
<path d="M425.072 604.685C417.476 604.685 410.85 604.12 405.194 602.989C399.537 602.019 394.851 600.323 391.134 597.901C387.417 595.478 384.67 592.167 382.892 587.967C381.114 583.929 380.225 578.76 380.225 572.461C380.225 568.099 380.306 563.981 380.468 560.104C380.791 556.066 381.033 552.19 381.195 548.474C381.518 544.76 381.761 541.044 381.922 537.329C382.246 533.615 382.407 529.738 382.407 525.699C382.407 523.277 381.922 521.016 380.952 518.915C379.983 516.655 378.205 514.635 375.619 512.858C373.034 511.082 369.398 509.628 364.711 508.497C360.186 507.367 354.368 506.801 347.257 506.801V494.202C354.368 494.202 360.186 493.637 364.711 492.506C369.398 491.376 373.034 489.922 375.619 488.145C378.205 486.369 379.983 484.431 380.952 482.33C381.922 480.069 382.407 477.727 382.407 475.304C382.407 467.551 382.003 459.96 381.195 452.529C380.549 444.938 380.225 436.943 380.225 428.543C380.225 422.243 381.114 417.075 382.892 413.037C384.67 408.837 387.417 405.526 391.134 403.103C394.851 400.68 399.537 398.984 405.194 398.015C410.85 396.884 417.476 396.319 425.072 396.319H439.859V407.706H427.253C421.112 407.706 416.021 408.111 411.981 408.918C408.103 409.726 405.032 411.018 402.77 412.794C400.669 414.571 399.214 416.913 398.406 419.821C397.598 422.567 397.194 425.878 397.194 429.754C397.194 436.7 397.437 443.888 397.921 451.318C398.406 458.586 398.649 466.017 398.649 473.608C398.649 481.523 397.033 487.58 393.8 491.779C390.73 495.818 384.992 498.563 376.589 500.017V500.986C384.992 502.44 390.73 505.267 393.8 509.466C397.033 513.505 398.649 519.481 398.649 527.395C398.649 535.633 398.406 543.144 397.921 549.928C397.437 556.712 397.194 563.819 397.194 571.249C397.194 575.126 397.598 578.437 398.406 581.183C399.214 584.09 400.669 586.433 402.77 588.209C405.032 589.986 408.103 591.279 411.981 592.086C416.021 592.894 421.112 593.297 427.253 593.297H439.859V604.685H425.072ZM548.608 570.765C538.75 570.765 529.618 568.907 521.215 565.192C512.812 561.477 505.458 556.147 499.156 549.201C493.014 542.095 488.166 533.453 484.611 523.277C481.056 512.939 479.278 501.31 479.278 488.387C479.278 475.627 481.056 464.159 484.611 453.983C488.166 443.807 493.095 435.166 499.398 428.058C505.701 420.952 513.215 415.54 521.942 411.825C530.669 407.949 540.204 406.01 550.547 406.01C560.082 406.01 568.486 407.949 575.758 411.825C583.192 415.702 589.252 420.225 593.939 425.393L582.546 438.234C578.344 433.873 573.657 430.401 568.486 427.816C563.314 425.071 557.335 423.697 550.547 423.697C542.951 423.697 536.002 425.232 529.7 428.301C523.558 431.208 518.306 435.489 513.943 441.142C509.579 446.634 506.185 453.337 503.761 461.251C501.337 469.167 500.125 478.05 500.125 487.903C500.125 497.918 501.337 506.963 503.761 515.039C506.185 522.954 509.579 529.738 513.943 535.391C518.306 541.044 523.558 545.406 529.7 548.474C536.002 551.544 542.951 553.078 550.547 553.078C557.82 553.078 564.284 551.544 569.94 548.474C575.758 545.406 581.253 541.044 586.424 535.391L597.818 547.747C591.515 555.016 584.404 560.67 576.485 564.707C568.567 568.746 559.274 570.765 548.608 570.765ZM671.417 567.857V425.878H619.055V408.918H744.141V425.878H691.779V567.857H671.417ZM839.318 570.765C829.455 570.765 820.327 568.907 811.926 565.192C803.517 561.477 796.169 556.147 789.858 549.201C783.722 542.095 778.874 533.453 775.321 523.277C771.761 512.939 769.988 501.31 769.988 488.387C769.988 475.627 771.761 464.159 775.321 453.983C778.874 443.807 783.806 435.166 790.108 428.058C796.411 420.952 803.926 415.54 812.653 411.825C821.38 407.949 830.91 406.01 841.258 406.01C850.788 406.01 859.196 407.949 866.469 411.825C873.9 415.702 879.96 420.225 884.65 425.393L873.256 438.234C869.052 433.873 864.363 430.401 859.196 427.816C854.022 425.071 848.045 423.697 841.258 423.697C833.659 423.697 826.713 425.232 820.41 428.301C814.266 431.208 809.017 435.489 804.653 441.142C800.29 446.634 796.896 453.337 794.472 461.251C792.048 469.167 790.836 478.05 790.836 487.903C790.836 497.918 792.048 506.963 794.472 515.039C796.896 522.954 800.29 529.738 804.653 535.391C809.017 541.044 814.266 545.406 820.41 548.474C826.713 551.544 833.659 553.078 841.258 553.078C848.53 553.078 854.992 551.544 860.651 548.474C866.469 545.406 871.961 541.044 877.135 535.391L888.528 547.747C882.226 555.016 875.112 560.67 867.196 564.707C859.272 568.746 849.985 570.765 839.318 570.765ZM923.58 604.685V593.297H935.943C942.087 593.297 947.094 592.894 950.972 592.086C955.01 591.279 958.161 589.986 960.427 588.209C962.692 586.433 964.222 584.09 965.032 581.183C965.843 578.437 966.245 575.126 966.245 571.249C966.245 563.819 966.002 556.712 965.517 549.928C965.032 543.144 964.79 535.633 964.79 527.395C964.79 519.481 966.328 513.505 969.396 509.466C972.464 505.267 978.206 502.44 986.607 500.986V500.017C978.206 498.563 972.464 495.818 969.396 491.779C966.328 487.58 964.79 481.523 964.79 473.608C964.79 466.017 965.032 458.586 965.517 451.318C966.002 443.888 966.245 436.7 966.245 429.754C966.245 425.878 965.843 422.567 965.032 419.821C964.222 416.913 962.692 414.571 960.427 412.794C958.161 411.018 955.01 409.726 950.972 408.918C947.094 408.111 942.087 407.706 935.943 407.706H923.58V396.319H938.367C945.965 396.319 952.51 396.884 958.002 398.015C963.661 398.984 968.343 400.68 972.062 403.103C975.782 405.526 978.524 408.837 980.305 413.037C982.085 417.075 982.971 422.243 982.971 428.543C982.971 436.943 982.57 444.938 981.759 452.529C981.115 459.96 980.789 467.551 980.789 475.304C980.789 477.727 981.274 480.069 982.244 482.33C983.213 484.431 984.994 486.369 987.577 488.145C990.16 489.922 993.721 491.376 998.243 492.506C1002.93 493.637 1008.83 494.202 1015.94 494.202V506.801C1008.83 506.801 1002.93 507.367 998.243 508.497C993.721 509.628 990.16 511.082 987.577 512.858C984.994 514.635 983.213 516.655 982.244 518.915C981.274 521.016 980.789 523.277 980.789 525.699C980.789 529.738 980.873 533.615 981.032 537.329C981.357 541.044 981.6 544.76 981.759 548.474C982.085 552.19 982.327 556.066 982.486 560.104C982.812 563.981 982.971 568.099 982.971 572.461C982.971 578.76 982.085 583.929 980.305 587.967C978.524 592.167 975.782 595.478 972.062 597.901C968.343 600.323 963.661 602.019 958.002 602.989C952.51 604.12 945.965 604.685 938.367 604.685H923.58Z" fill="#FF7619"/>
</svg>
